<svg xmlns="http://www.w3.org/2000/svg" viewBox="0 0 80 80">
  <defs>
    <linearGradient id="blackKnightBody" x1="0" x2="0" y1="0" y2="1">
      <stop offset="0" stop-color="#4b4b4b" />
      <stop offset="0.6" stop-color="#2b2b2b" />
      <stop offset="1" stop-color="#151515" />
    </linearGradient>
  </defs>
  <ellipse cx="40" cy="69" rx="21" ry="5" fill="#0f0f0f" opacity="0.4" />
  <path d="M47 13c-3.9 0-7.5 2.3-9.2 5.9L33 26l4.6 2.7-4.4 6.1-6.1-3.5-3 5.8 7 4.4-3.3 4.6c-1 1.3-.7 3.1.6 4l4.9 3.4.3 6.5-4.8 4.8c-1 .9-1.3 2.4-.9 3.7.4 1.4 1.5 2.4 2.9 2.7l6.1 1 .5 5c.1 1.4 1.3 2.5 2.7 2.5h10.5c1.4 0 2.5-1.1 2.7-2.5l.5-5 6.1-1c1.4-.3 2.5-1.3 2.9-2.7.4-1.3.1-2.8-.9-3.7l-4.8-4.8.3-8c.1-3.3-1-6.6-3.1-9.3l-5.1-6.7 4.9-2.1c1.7-.7 3-2.4 3.1-4.3.2-2-1-3.8-2.7-4.6l-5.6-2.8c-1.3-.6-2.8-1-4.2-1z" fill="url(#blackKnightBody)" stroke="#202020" stroke-width="2" stroke-linejoin="round" />
  <path d="M46.6 25.6l4 2.1-5.9 2.4-4.3 1.7 6 7.8c1.3 1.7 2 3.8 1.9 5.9l-.4 7-11.6.6-.4-6.1 5.9-6.2c.7-.8.7-2 .1-2.8l-2.6-3.1c-.6-.8-.5-1.9.2-2.6l4.4-3.2 2.7-4.5z" fill="#3b3b3b" />
  <circle cx="46.3" cy="22.8" r="1.7" fill="#f1f1f1" />
</svg>
