<svg xmlns="http://www.w3.org/2000/svg" viewBox="0 0 80 80">
  <defs>
    <linearGradient id="blackBishopBody" x1="0" x2="0" y1="0" y2="1">
      <stop offset="0" stop-color="#4f4f4f" />
      <stop offset="0.6" stop-color="#2d2d2d" />
      <stop offset="1" stop-color="#161616" />
    </linearGradient>
  </defs>
  <ellipse cx="40" cy="68.5" rx="21.5" ry="5" fill="#101010" opacity="0.42" />
  <path d="M40 11.5c5.8 0 10.5 4.7 10.5 10.5 0 2.8-1.06 5.4-2.97 7.4l-1.78 1.9 5.75 8.1c1.7 2.4 2.6 5.2 2.6 8.1 0 4.9-2.3 9.4-6.1 12.2l-1.5 1.1.4 5.9c.08 1.3-.87 2.4-2.17 2.4H35.2c-1.3 0-2.26-1.1-2.18-2.4l.4-5.9-1.5-1.1c-3.8-2.8-6.1-7.3-6.1-12.2 0-2.9.9-5.7 2.6-8.1l5.74-8.1-1.78-1.9A10.46 10.46 0 0129.5 22c0-5.8 4.7-10.5 10.5-10.5z" fill="url(#blackBishopBody)" stroke="#202020" stroke-width="2" stroke-linejoin="round" />
  <path d="M39.8 18.2c-.94 0-1.7.76-1.7 1.7v9.1h3.5v-9.1c0-.94-.76-1.7-1.8-1.7z" fill="#3a3a3a" />
  <path d="M33 54.5c2.3 1.3 4.7 2 7 2s4.7-.7 7-2l.8 2c-2.7 1.7-5.3 2.5-7.8 2.5s-5.1-.8-7.8-2.5l.8-2z" fill="#2f2f2f" />
  <path d="M34.7 61.8h10.6l-.3 4.9H35l-.3-4.9z" fill="#343434" stroke="#202020" stroke-width="1.3" />
</svg>
