<svg xmlns="http://www.w3.org/2000/svg" viewBox="0 0 80 80">
  <defs>
    <linearGradient id="blackRookBody" x1="0" x2="0" y1="0" y2="1">
      <stop offset="0" stop-color="#4d4d4d" />
      <stop offset="0.7" stop-color="#2d2d2d" />
      <stop offset="1" stop-color="#151515" />
    </linearGradient>
  </defs>
  <ellipse cx="40" cy="69" rx="22" ry="5.2" fill="#101010" opacity="0.42" />
  <path d="M24 16h8v5h6v-5h4v5h6v-5h8v12l-4 3v26l4.5 4.8c.6.63.8 1.55.5 2.37-.3.83-1.04 1.43-1.91 1.55l-7.6 1.1-.6 6.4c-.12 1.25-1.18 2.2-2.44 2.2H31.6c-1.26 0-2.32-.95-2.44-2.2l-.6-6.4-7.6-1.1c-.87-.12-1.61-.72-1.92-1.55-.3-.82-.1-1.74.51-2.37L24 57V31l-4-3V16z" fill="url(#blackRookBody)" stroke="#202020" stroke-width="2" stroke-linejoin="round" />
  <path d="M30.5 53.5h19v2.8h-19z" fill="#2d2d2d" />
  <path d="M32.3 61.7h14.4l-.4 4.8H32.7l-.4-4.8z" fill="#333" stroke="#202020" stroke-width="1.4" />
</svg>
