<svg xmlns="http://www.w3.org/2000/svg" viewBox="0 0 80 80">
  <defs>
    <linearGradient id="blackKingBody" x1="0" x2="0" y1="0" y2="1">
      <stop offset="0" stop-color="#4a4a4a" />
      <stop offset="0.55" stop-color="#2f2f2f" />
      <stop offset="1" stop-color="#1a1a1a" />
    </linearGradient>
    <linearGradient id="blackKingCrown" x1="0" x2="0" y1="0" y2="1">
      <stop offset="0" stop-color="#545454" />
      <stop offset="1" stop-color="#2c2c2c" />
    </linearGradient>
  </defs>
  <ellipse cx="40" cy="70" rx="24" ry="6" fill="#0d0d0d" opacity="0.5" />
  <path d="M36.25 8h7.5v4.5H48v5h-4.25v5.1c9.05 1.54 15.75 9.3 15.75 18.86 0 7.98-4.5 14.78-10.76 18.73l-1.42.9V63.5c0 1.38-.9 2.5-2.28 2.5H34.9c-1.38 0-2.4-1.12-2.4-2.5V61.1l-1.4-.86C24 56.36 19.5 49.55 19.5 41.56c0-9.56 6.7-17.32 15.75-18.86V17.5H31.5v-5h4.75z" fill="url(#blackKingBody)" stroke="#1e1e1e" stroke-width="2" stroke-linejoin="round" />
  <path d="M28.6 50.9c3.5 2.08 7.44 3.1 11.4 3.1s7.9-1.02 11.4-3.1l.7 1.8c-3.9 2.5-8.4 3.8-13.1 3.8s-9.2-1.3-13.1-3.8l.7-1.8z" fill="#2b2b2b" />
  <path d="M33 60.6h14v4.4H33z" fill="#2f2f2f" stroke="#1e1e1e" stroke-width="1.5" />
  <path d="M36.6 17.5h6.8v7.5c0 .97-.83 1.75-1.8 1.75h-3.2c-.97 0-1.8-.78-1.8-1.75v-7.5z" fill="url(#blackKingCrown)" stroke="#1f1f1f" stroke-width="1.6" />
  <path d="M40 5c1.1 0 2 .9 2 2v3h-4V7c0-1.1.9-2 2-2z" fill="#363636" stroke="#1d1d1d" stroke-width="1.8" />
</svg>
