<svg xmlns="http://www.w3.org/2000/svg" viewBox="0 0 80 80">
  <defs>
    <linearGradient id="whiteKingBody" x1="0" x2="0" y1="0" y2="1">
      <stop offset="0" stop-color="#f9f7f0" />
      <stop offset="0.55" stop-color="#e7e1d2" />
      <stop offset="1" stop-color="#d5ccb9" />
    </linearGradient>
    <linearGradient id="whiteKingCrown" x1="0" x2="0" y1="0" y2="1">
      <stop offset="0" stop-color="#fdfbf6" />
      <stop offset="1" stop-color="#e8e0cf" />
    </linearGradient>
    <radialGradient id="whiteKingShadow" cx="50%" cy="55%" r="55%">
      <stop offset="0" stop-color="#a99d88" stop-opacity="0.55" />
      <stop offset="1" stop-color="#867b68" stop-opacity="0" />
    </radialGradient>
  </defs>
  <ellipse cx="40" cy="70" rx="24" ry="6" fill="#b8ac97" opacity="0.45" />
  <path fill="url(#whiteKingShadow)" d="M18 27c0 8.8 4.7 16.6 12 21.2V61h20V48.2C57.3 43.6 62 35.8 62 27c0-11.6-9.4-21-21-21 S18 15.4 18 27z" opacity="0.35" />
  <path d="M36.25 8h7.5v4.5H48v5h-4.25v5.1c9.05 1.54 15.75 9.3 15.75 18.86 0 7.98-4.5 14.78-10.76 18.73l-1.42.9V63.5c0 1.38-.9 2.5-2.28 2.5H34.9c-1.38 0-2.4-1.12-2.4-2.5V61.1l-1.4-.86C24 56.36 19.5 49.55 19.5 41.56c0-9.56 6.7-17.32 15.75-18.86V17.5H31.5v-5h4.75z" fill="url(#whiteKingBody)" stroke="#7d715d" stroke-width="2" stroke-linejoin="round" />
  <path d="M28.6 50.9c3.5 2.08 7.44 3.1 11.4 3.1s7.9-1.02 11.4-3.1l.7 1.8c-3.9 2.5-8.4 3.8-13.1 3.8s-9.2-1.3-13.1-3.8l.7-1.8z" fill="#cec6b5" />
  <path d="M33 60.6h14v4.4H33z" fill="#d9d1c0" stroke="#7d715d" stroke-width="1.5" />
  <path d="M36.6 17.5h6.8v7.5c0 .97-.83 1.75-1.8 1.75h-3.2c-.97 0-1.8-.78-1.8-1.75v-7.5z" fill="url(#whiteKingCrown)" stroke="#80725c" stroke-width="1.6" />
  <path d="M40 5c1.1 0 2 .9 2 2v3h-4V7c0-1.1.9-2 2-2z" fill="#f8f4ea" stroke="#7f6f59" stroke-width="1.8" />
</svg>
