<svg xmlns="http://www.w3.org/2000/svg" viewBox="0 0 80 80">
  <defs>
    <linearGradient id="whiteQueenBody" x1="0" x2="0" y1="0" y2="1">
      <stop offset="0" stop-color="#faf6ed" />
      <stop offset="0.6" stop-color="#e9e1d1" />
      <stop offset="1" stop-color="#d2c7b3" />
    </linearGradient>
  </defs>
  <ellipse cx="40" cy="69" rx="23" ry="5.5" fill="#b7aa93" opacity="0.4" />
  <path d="M21 20.5l3.4 2.1 2.9-4.8 4.2 3.3 4.5-5.6 4 6.1 4.4-6.1 4.6 5.6 4.1-3.3 3 4.8 3.5-2.1L58 27l-6 23 2.5 3.2c.6 .75 .8 1.74 .45 2.63-.36.88-1.15 1.52-2.08 1.7l-4.87.95-.5 6.42c-.1 1.28-1.2 2.28-2.48 2.28H35.5c-1.28 0-2.36-1-2.47-2.28l-.5-6.42-4.87-.95c-.93-.18-1.72-.82-2.08-1.7a2.86 2.86 0 01.45-2.63L29 50 23 27l-2-6.5z" fill="url(#whiteQueenBody)" stroke="#7b6d58" stroke-width="2" stroke-linejoin="round" />
  <path d="M30.8 49c2.9 1.7 6.03 2.5 9.2 2.5s6.3-.8 9.2-2.5l.8 2c-3.1 1.9-6.6 2.8-10 2.8s-6.9-.9-10-2.8l.8-2z" fill="#d7cdba" />
  <path d="M32.8 59.8h14.4l-.4 5H33.2l-.4-5z" fill="#dfd5c2" stroke="#7b6d58" stroke-width="1.4" />
</svg>
