<svg xmlns="http://www.w3.org/2000/svg" viewBox="0 0 80 80">
  <defs>
    <linearGradient id="whitePawnBody" x1="0" x2="0" y1="0" y2="1">
      <stop offset="0" stop-color="#fbf6eb" />
      <stop offset="0.6" stop-color="#e7deca" />
      <stop offset="1" stop-color="#d4c8b2" />
    </linearGradient>
  </defs>
  <ellipse cx="40" cy="68.5" rx="19" ry="4.5" fill="#b9ae96" opacity="0.32" />
  <path d="M40 17a9 9 0 110 18 9 9 0 010-18z" fill="url(#whitePawnBody)" stroke="#7d6f59" stroke-width="2" />
  <path d="M30.3 41.2c-.3-1.2.4-2.3 1.6-2.6a41 41 0 0116.2 0c1.2.3 1.9 1.4 1.6 2.6l-1 3.7c-.4 1.5-.1 3.1.9 4.3 1.8 2.2 2.8 4.9 2.8 7.8 0 3.7-1.6 7.2-4.4 9.6l-.8.7.4 4.8c.1 1.2-.8 2.2-2 2.2H33.4c-1.2 0-2.1-1-2-2.2l.4-4.8-.8-.7a12.5 12.5 0 01-4.4-9.6c0-2.9 1-5.6 2.8-7.8 1-1.2 1.3-2.8.9-4.3l-1-3.7z" fill="url(#whitePawnBody)" stroke="#7d6f59" stroke-width="2" stroke-linejoin="round" />
  <path d="M34.6 63h10.8l-.3 4.3H34.9l-.3-4.3z" fill="#e1d6c0" stroke="#7d6f59" stroke-width="1.2" />
</svg>
